<svg xmlns="http://www.w3.org/2000/svg" viewBox="0 0 64 64" role="img" aria-label="MiroFish icon">
  <defs>
    <linearGradient id="mirofish-gradient" x1="10%" y1="10%" x2="90%" y2="90%">
      <stop offset="0%" stop-color="#21d4fd" />
      <stop offset="100%" stop-color="#0b5fff" />
    </linearGradient>
  </defs>
  <rect width="64" height="64" rx="16" fill="#07111f" />
  <path
    d="M14 24c8-8 20-11 31-7 3 1 5 2 7 4l-7 5c-6-3-14-2-20 2l9 4 2 9c-5 4-12 6-19 5-1 3-3 6-6 8 1-4 1-7 0-11-2-4-1-9 3-14z"
    fill="url(#mirofish-gradient)"
  />
  <circle cx="42" cy="23" r="2.5" fill="#e6f6ff" />
</svg>
